<?xml version="1.0" encoding="utf-8"?><svg xml:space="preserve" viewBox="0 0 100 100" y="0" x="0" xmlns="http://www.w3.org/2000/svg" id="Layer_1" version="1.1" width="105px" height="105px" xmlns:xlink="http://www.w3.org/1999/xlink" style="width:100%;height:100%;background-size:initial;background-repeat-y:initial;background-repeat-x:initial;background-position-y:initial;background-position-x:initial;background-origin:initial;background-image:initial;background-color:rgb(255, 255, 255);background-clip:initial;background-attachment:initial;animation-play-state:paused" ><g class="ldl-scale" style="transform-origin:50% 50%;transform:rotate(0deg) scale(0.6, 0.6);animation-play-state:paused" ><g id="XMLID_972_" style="animation-play-state:paused" ><path fill="#999998" d="M17.157 41.899l.054.194.003-.001a3.169 3.169 0 0 0-.057-.193z" id="XMLID_973_" style="fill:rgb(153, 153, 152);animation-play-state:paused" ></path>
<path fill="#999998" d="M17.018 41.66c.049.019.095.109.139.239-.066-.224-.117-.346-.139-.239z" id="XMLID_974_" style="fill:rgb(153, 153, 152);animation-play-state:paused" ></path>
<path fill="#999998" d="M18.123 42.774a.624.624 0 0 0-.106-.144l.052.138c.019.005.034-.003.054.006z" id="XMLID_975_" style="fill:rgb(153, 153, 152);animation-play-state:paused" ></path>
<path fill="#999998" d="M82.861 35.145l-.164.152c-1.131-3.102-2.666-5.936-4.472-8.607-1.796-1.291-2.938-3.361-4.527-4.932-1.748-1.655-3.794-3.301-5.579-4.443-.47-.233-.296-.867-.349-1.385-.75-.592-1.486-1.369-2.261-2.152-1.154-1.228-2.584-2.555-3.875-3.528.047.042.088.091.114.124-1.37-.997-2.245-2.328-3.889-2.719-.022.188-.272.133-.406.2-.034-.234-.675-.418-1.636-.336-.964.066-2.184.502-3.199 1.215-.513.353-.993.761-1.428 1.179-.438.41-.805.927-1.141 1.292-.663.768-1.133 1.257-1.311 1.241a5.38 5.38 0 0 1-.341.416l-1.094.677c-.179.104-.394.24-.55.318l-.427.181c-.574.235-1.172.443-1.747.662-1.146.443-2.228.906-2.899 1.654-.03.601-.134 1.202-.074 1.792-.517-.03-.06.546-.438.765-2.003-.523-1.944.456-1.108.514-.47.791-1.222 1.295-1.737 1.898-.169.35-.331.702-.485 1.07-.118.325-.426.262-.835.078-.392.743-.53.27-1.25.743-.583-.287-.784 2.189-1.077 2.232l.03-.162c-.751.623-2.062.258-2.763.91-2.157 1.611-3.796 4.048-5.594 5.733.464.451.258-.498.913.055-1.057.992-2.62 1.557-3.672 2.586-.304.085-.762.115-.996.071-.49.196.052.412-.236.616l-.472-.348c.033.693-.974.131-1.1.649.162.172.074.324-.049.441-.476-.396-.303.423-.718.037l.032.034c-.074.071-.09.152-.252.178.039.291.168 2.76.252 3.079l-.136.004c-.158.219.122.601.308.553l-.238.232-.008-.057-.237.23c-.081.012-.347-.12-.496-.366.047.282.003.518-.202.59a10.506 10.506 0 0 1 2.279-.317c.022.307-.488.403-.59.632-.498-.042-1.145.191-1.657.366-.037.101.451.593.071.578-.44-.216-.15.212-.538.141-.058-.332.166-.426.326-.583-.459-.328-.638.178-.872.214.085.176-.329.394-.379.702-.226-.283-.331-.217-.467-.153l.026.107a8.784 8.784 0 0 1-.028-.106.41.41 0 0 1-.263.045c-.166.101-.071.328.125.391.092.091.178.12.261.125.122.656.22 1.379.296 1.303.08-.011.149.047.214.117a.269.269 0 0 0 .113.123c.08.096.158.182.246.153l-.065-.141c.617-.516 2.07 2.555 2.784 1.959-.795-.135-.475-.554-.277-.927.21.119.599.197.927.081.12-.234-.103-.28-.21-.43.213-.011.487-.139.75.123-.214-.434.419-.07.454-.353-.023-.293-.156-.11-.225-.361.237-.217.572-.518.798-.659.329.145.991.309 1.265.818-.363.322-.556-.699-.787-.241.747.339-.116.478.288.929.377.105.585-.14.681-.41l-.115-.025c.072-.248.249-.719.738-.645.174.224.406.272.347.449l.248-.217c-.041-.088-.083-.179-.191-.147-.067-.256.124-.297.325-.283.241.16.179-2.119.285-1.962.069-.088.189-.08.288-.086-.214.586-.509 2.072-.408 1.839.373.058.606-2.98 1.125-2.732.098-.146.189-.345-.064-.509.303-.129.373.437.721.461-.032-.034-.124-.084-.072-.128l.417.094c-.05-.648.843-.759.697-1.522.152.317.475.809.494 1.232l-.153-.062c.04.093-.047.351.182.541.341-.09.462-.313.443-.737.098.01.201.013.292.034l-.091-.073c.205.046.22.074.284.178a.357.357 0 0 1 .037.06c.772.435.339-1.221 1.031-1.32.012-.199-.101-.109-.097-.366.62-.176 1.064-.281 1.593-.567-.158-.385-.26-.496-.699-.596l.379-.236c.482.958 1.245.047 1.699 1.034.254.061.459-.096.499-.382-.171-.187-.445-.487-.242-.709.528-.085.371-.093.841-.132.296.16.307.341.509.507.049-.677.839.14 1.132-.27.142-.295.534-.777.124-1.178.307-.293.614-.007.927.342l.28-.208c-.719.846-1.669 1.556-2.61 2.257 3.135-.551 6.361-1.464 4.713-5.734 1.74 1.374 4.149.364 3.799-.046.063-.64.184-1.235.352-1.793.956-3.106 3.481-4.997 6.3-6.674a34.649 34.649 0 0 0-.979 5.411c.589 1.772.155 3.709.352 5.558.268 1.989.732 4.139 1.308 5.84.196.405-.355.707-.661 1.06.321 1.568.124 3.571.513 5.339a.276.276 0 0 1 .022-.087c.124.941-.548 1.656-.421 2.574.189-.007.203.135.302.203-.878.172 1.912 5.389 1.411 5.721.043.095.082.193.106.294-.367 1.947-2.055 3.98-1.876 5.645.42.356.789.758 1.262 1.056-.374.3.359.346.263.703-1.754.927-1.007 1.445-.389.97.249.739.103 1.485.174 2.144.133.304.274.606.43.912.152.26-.108.41-.525.548.26.667-.179.475-.347 1.18-.615.179 1.008 1.748.823 1.949l-.093-.114c-.097.814-1.284 1.371-1.326 2.166-.421 2.213.071 4.616-.112 6.663.647.011-.15-.449.707-.485-.095 1.207-.881 2.434-.972 3.652-.171.222-.492.495-.697.598-.236.392.312.225.233.511l-.584.047c.485.409-.639.617-.392 1.006.236.017.269.16.252.299-.619.016.049.428-.517.416l.047.003c-.009.084.032.143-.073.247.22.156 1.94 1.625 2.205 1.783l-.101.077c.022.223.483.312.593.18l-.031.276-.043-.031-.031.274c-.054.051-.341.113-.615.039.218.152.338.325.23.482a9.846 9.846 0 0 1 1.529-1.442c.216.182-.109.522-.039.723-.406.246-.747.745-1.024 1.133.037.084.729.132.427.328-.476.1.02.216-.322.38-.257-.179-.145-.36-.123-.546-.563.04-.376.457-.533.606.178.066-.001.427.159.649-.355-.059-.393.039-.457.153l.065.041-.066-.038a.365.365 0 0 1-.173.168c-.063.153.156.246.346.182a.45.45 0 0 0 .279-.059c.514.353 1.054.762 1.064.674.061-.056.165-.05.272-.036a.356.356 0 0 0 .086.01c.141.023.277.046.333-.029l-.14-.056c.142-.665 3.227.535 3.393-.237-.696.344-.72-.102-.807-.45.238-.037.586-.198.764-.452-.058-.217-.258-.125-.437-.164.156-.123.285-.356.654-.331-.442-.164.277-.275.122-.477-.206-.177-.19.015-.404-.109.042-.27.099-.649.181-.864.344-.088.954-.349 1.493-.173-.068.41-.877-.143-.755.28.788-.194.222.373.822.442.355-.141.354-.415.252-.643l-.104.047c-.107-.201-.278-.603.143-.828.278.048.485-.051.555.097l.048-.279c-.088-.034-.179-.069-.241.012-.217-.128-.099-.261.064-.365.293-.035-1.255-1.464-1.071-1.421-.006-.096.092-.159.163-.219.218.491.976 1.62.898 1.412.32-.176-1.501-2.253-.946-2.386-.024-.148-.089-.327-.386-.288.141-.253.569.067.846-.116-.047-.003-.149.017-.139-.04l.374-.177c-.468-.384.125-.964-.492-1.364.324.114.892.24 1.188.499l-.156.048c.092.036.198.251.495.241.195-.252.137-.465-.159-.724.08-.05.159-.107.241-.147-.039.002-.072.006-.116.006.184-.089.214-.08.331-.05.021.004.046.008.068.017.869-.169-.566-.973-.121-1.435-.125-.133-.149-.01-.318-.175.339-.471.6-.796.795-1.286-.378-.15-.528-.16-.917.033l.117-.37c1.005.32.944-.701 1.949-.346.228-.111.271-.332.106-.536-.252-.017-.657-.044-.66-.303.329-.366.208-.278.526-.581.326-.075.457.032.718.016-.426-.455.706-.412.637-.846-.1-.271-.147-.808-.721-.813.021-.367.441-.373.908-.344l.06-.299c.058.964-.131 1.982-.35 2.985 1.921-2.203 3.61-4.796-.567-6.418 2.206-.214 3.202-2.34 2.658-2.375a8.406 8.406 0 0 1-1.027-1.316c-1.754-2.812-1.049-5.905-.241-9.105.4-1.775.813-6.586 1.426-8.407.077-.264.147-.526.207-.793l-.384.885c-.606-1.097-1.194-2.09-1.586-3.055-.315.175-.621.21-1.052.621l.204-.498c-.923-.438-.898-1.478-1.292-1.961.483.098.572-.288.64-.629l-.316.139c.181-1.292-.231-2.783-.188-3.937-.003-.161.175-.284.339-.359l-.387-1.1c.645.076.553-.924.963-.403-.773-.816-.319-1.662-1.118-2.439-.136-2.817-.668-5.807-1.786-8.705l-.238.075c-.441-1.014-1.722-1.894-1.319-3.14-.871-.873-1.341-2.125-2.687-2.458-.102-.526-.333-.886-.582-1.249.119-.063.126-.037.183-.047.09-.001.176.006.254.022.31.049.499.298.524.706a1.55 1.55 0 0 1-.002.266c.017-.243.017-.242-.001-.484.061-.742.406-1.334.747-1.535.082-.367.2-.69.211-1.274l.083.358c.486-.844.872-.379 1.275-.515-.311.372-.229.596-.163.77l.152-.302c.087.163.196.3.323.424l.367.355.436.402c.581.533 1.165 1.037 1.592 1.55.126.137.087.361.022.535l1.136.695c-.543.359.288 1.166-.418.984 1.206.199 1.503 1.233 2.697 1.394 2.236 2.379 4.852 4.701 7.839 6.638l.132-.216c1.081.648 2.733.666 3.313 2.065 1.317.274 2.592 1.154 3.902.658.889.837 1.717.806 2.716 1.538.341-.647 1.34.428 1.394-.347.261-1.195-.392-.749-.209-1.741zm-65.186 8.771c-.043-.086.055-.119.101-.162-.1.097-.266-.506-.418-1.095.243-.001.452-.235.659-.028l-.041-.099.166-.01a.605.605 0 0 1-.026.374 5.335 5.335 0 0 0-.047-.127c-.227-.056-.366.229-.459.381.169.139.235.118.31.18a.766.766 0 0 1 .031.302c-.008.025-.012.051-.018.077l-.065.009c.006.074-.011.138-.024.197-.034.023-.086.029-.169.001zm.925.169c.126.075.237.162.284.242-.075.071-.176-.043-.284-.242zm33.94 48.352c-.088-.032-.034-.106-.026-.158-.015.114-.528-.182-1.023-.476.186-.131.197-.392.489-.371a1.595 1.595 0 0 0-.096-.041l.121-.095a.519.519 0 0 1 .22.252l-.117-.056c-.211.086-.134.342-.108.489.219-.002.256-.05.353-.051a.706.706 0 0 1 .216.176.52.52 0 0 0 .035.06l-.043.04c.053.045.082.093.11.138-.011.035-.049.067-.131.093zm.819-.388c.144-.019.286-.024.373.003-.012.086-.162.067-.373-.003z" id="XMLID_978_" style="fill:rgb(153, 153, 152);animation-play-state:paused" ></path>
<path fill="#999998" d="M52.153 91.467a.68.68 0 0 0-.173-.034l.128.06c.017-.008.023-.021.045-.026z" id="XMLID_982_" style="fill:rgb(153, 153, 152);animation-play-state:paused" ></path>
<path fill="#999998" d="M50.59 91.351c.059-.017.183.038.332.119-.233-.133-.389-.208-.332-.119z" id="XMLID_983_" style="fill:rgb(153, 153, 152);animation-play-state:paused" ></path>
<path fill="#999998" d="M50.922 91.469l.093.053.002-.003c-.036-.021-.062-.032-.095-.05z" id="XMLID_984_" style="fill:rgb(153, 153, 152);animation-play-state:paused" ></path></g>
<metadata xmlns:d="https://loading.io/stock/" style="animation-play-state:paused" ><d:name style="animation-play-state:paused" >up</d:name>


<d:tags style="animation-play-state:paused" >top,go,forward,front,sketch,up,arrow</d:tags>


<d:license style="animation-play-state:paused" >by</d:license>


<d:slug style="animation-play-state:paused" >4cnuk8</d:slug></metadata></g><!-- generated by https://loading.io/ --></svg>